{
.appVersion = "895";
copyright = "Copyright 2016 Google Inc. All Rights Reserved.";
customParameters = (
{
name = description;
value = "Data unhinted. Designed by Monotype design team.";
},
{
name = license;
value = "This Font Software is licensed under the SIL Open Font License, Version 1.1. This Font Software is distributed on an \"AS IS\" BASIS, WITHOUT WARRANTIES OR CONDITIONS OF ANY KIND, either express or implied. See the SIL Open Font License for the specific language, permissions and limitations governing your use of this Font Software.";
},
{
name = licenseURL;
value = "http://scripts.sil.org/OFL";
},
{
name = vendorID;
value = GOOG;
},
{
name = panose;
value = (
2,
11,
5,
2,
4,
5,
4,
2,
2,
4
);
},
{
name = unicodeRanges;
value = (
57,
121
);
},
{
name = codePageRanges;
value = (
1252
);
}
);
date = "2016-11-10 14:28:18 +0000";
designer = "Monotype Design Team";
designerURL = "http://www.monotype.com/studio";
familyName = "Noto Sans Lydian";
fontMaster = (
{
ascender = 2189;
capHeight = 1434;
customParameters = (
{
name = typoAscender;
value = 2189;
},
{
name = typoDescender;
value = -600;
},
{
name = typoLineGap;
value = 0;
},
{
name = winAscent;
value = 2189;
},
{
name = winDescent;
value = 600;
},
{
name = hheaAscender;
value = 2189;
},
{
name = hheaDescender;
value = -600;
},
{
name = underlinePosition;
value = -205;
},
{
name = underlineThickness;
value = 102;
}
);
descender = -600;
id = "3ED71B97-E60E-4E30-889A-2D23B0967E72";
weightValue = 400;
widthValue = 5;
xHeight = 1024;
}
);
glyphs = (
{
glyphname = .notdef;
lastChange = "2016-11-10 14:28:03 +0000";
layers = (
{
layerId = "3ED71B97-E60E-4E30-889A-2D23B0967E72";
paths = (
{
closed = 1;
nodes = (
"922 0 LINE",
"922 1462 LINE",
"102 1462 LINE",
"102 0 LINE"
);
},
{
closed = 1;
nodes = (
"201 1364 LINE",
"823 1364 LINE",
"823 98 LINE",
"201 98 LINE"
);
}
);
width = 1024;
}
);
note = .notdef;
},
{
glyphname = g4;
lastChange = "2016-11-10 14:28:03 +0000";
layers = (
{
layerId = "3ED71B97-E60E-4E30-889A-2D23B0967E72";
paths = (
{
closed = 1;
nodes = (
"206 0 LINE",
"255 130 LINE",
"928 557 LINE",
"1136 0 LINE",
"1327 0 LINE",
"757 1468 LINE",
"591 1468 LINE",
"20 0 LINE"
);
},
{
closed = 1;
nodes = (
"608 1059 LINE SMOOTH",
"627 1112 OFFCURVE",
"648 1185 OFFCURVE",
"671 1278 CURVE",
"741 1059 LINE",
"870 712 LINE",
"351 383 LINE"
);
}
);
width = 1347;
}
);
note = g4;
},
{
glyphname = g5;
lastChange = "2016-11-10 14:28:03 +0000";
layers = (
{
layerId = "3ED71B97-E60E-4E30-889A-2D23B0967E72";
paths = (
{
closed = 1;
nodes = (
"1132 0 LINE",
"1132 1462 LINE",
"715 1462 LINE SMOOTH",
"322 1462 OFFCURVE",
"160 1349 OFFCURVE",
"160 1100 CURVE SMOOTH",
"160 927 OFFCURVE",
"257 809 OFFCURVE",
"438 776 CURVE",
"438 766 LINE",
"213 727 OFFCURVE",
"110 608 OFFCURVE",
"110 416 CURVE SMOOTH",
"110 155 OFFCURVE",
"299 0 OFFCURVE",
"618 0 CURVE SMOOTH"
);
},
{
closed = 1;
nodes = (
"420 158 OFFCURVE",
"307 246 OFFCURVE",
"307 430 CURVE SMOOTH",
"307 602 OFFCURVE",
"422 685 OFFCURVE",
"667 685 CURVE SMOOTH",
"948 685 LINE",
"948 158 LINE",
"653 158 LINE SMOOTH"
);
},
{
closed = 1;
nodes = (
"446 841 OFFCURVE",
"350 908 OFFCURVE",
"350 1079 CURVE SMOOTH",
"350 1239 OFFCURVE",
"459 1304 OFFCURVE",
"706 1304 CURVE SMOOTH",
"948 1304 LINE",
"948 841 LINE",
"678 841 LINE SMOOTH"
);
}
);
width = 1332;
}
);
note = g5;
},
{
glyphname = g6;
lastChange = "2016-11-10 14:28:03 +0000";
layers = (
{
layerId = "3ED71B97-E60E-4E30-889A-2D23B0967E72";
paths = (
{
closed = 1;
nodes = (
"928 -20 OFFCURVE",
"1169 253 OFFCURVE",
"1169 733 CURVE SMOOTH",
"1169 884 OFFCURVE",
"1141 1017 OFFCURVE",
"1085 1130 CURVE SMOOTH",
"973 1357 OFFCURVE",
"754 1483 OFFCURVE",
"467 1483 CURVE SMOOTH",
"312 1483 OFFCURVE",
"178 1454 OFFCURVE",
"63 1397 CURVE",
"137 1241 LINE",
"254 1294 OFFCURVE",
"364 1321 OFFCURVE",
"469 1321 CURVE SMOOTH",
"784 1321 OFFCURVE",
"975 1096 OFFCURVE",
"975 731 CURVE SMOOTH",
"975 352 OFFCURVE",
"792 141 OFFCURVE",
"471 141 CURVE SMOOTH",
"367 141 OFFCURVE",
"250 160 OFFCURVE",
"120 199 CURVE",
"120 39 LINE",
"244 -6 OFFCURVE",
"349 -20 OFFCURVE",
"497 -20 CURVE SMOOTH"
);
}
);
width = 1294;
}
);
note = g6;
},
{
glyphname = g7;
lastChange = "2016-11-10 14:28:03 +0000";
layers = (
{
layerId = "3ED71B97-E60E-4E30-889A-2D23B0967E72";
paths = (
{
closed = 1;
nodes = (
"735 578 LINE",
"735 0 LINE",
"919 0 LINE",
"919 1462 LINE",
"735 1462 LINE",
"735 816 LINE",
"60 90 LINE",
"179 -20 LINE"
);
}
);
width = 1119;
}
);
note = g7;
},
{
glyphname = g8;
lastChange = "2016-11-10 14:28:03 +0000";
layers = (
{
layerId = "3ED71B97-E60E-4E30-889A-2D23B0967E72";
paths = (
{
closed = 1;
nodes = (
"984 0 LINE",
"984 1462 LINE",
"800 1462 LINE",
"800 776 LINE",
"294 1085 LINE",
"210 942 LINE",
"800 581 LINE",
"800 194 LINE",
"144 595 LINE",
"60 452 LINE",
"800 0 LINE"
);
}
);
width = 1184;
}
);
note = g8;
},
{
glyphname = g9;
lastChange = "2016-11-10 14:28:03 +0000";
layers = (
{
layerId = "3ED71B97-E60E-4E30-889A-2D23B0967E72";
paths = (
{
closed = 1;
nodes = (
"984 0 LINE",
"984 1462 LINE",
"800 1462 LINE",
"60 1010 LINE",
"144 867 LINE",
"800 1267 LINE",
"800 881 LINE",
"210 520 LINE",
"294 377 LINE",
"800 686 LINE",
"800 0 LINE"
);
}
);
width = 1184;
}
);
note = g9;
},
{
glyphname = g10;
lastChange = "2016-11-10 14:28:03 +0000";
layers = (
{
layerId = "3ED71B97-E60E-4E30-889A-2D23B0967E72";
paths = (
{
closed = 1;
nodes = (
"434 0 LINE",
"434 1462 LINE",
"250 1462 LINE",
"250 0 LINE"
);
}
);
width = 684;
}
);
note = g10;
},
{
glyphname = g11;
lastChange = "2016-11-10 14:28:03 +0000";
layers = (
{
layerId = "3ED71B97-E60E-4E30-889A-2D23B0967E72";
paths = (
{
closed = 1;
nodes = (
"1096 0 LINE",
"1096 1462 LINE",
"846 1462 LINE SMOOTH",
"390 1462 OFFCURVE",
"125 1201 OFFCURVE",
"125 745 CURVE SMOOTH",
"125 261 OFFCURVE",
"397 0 OFFCURVE",
"889 0 CURVE SMOOTH"
);
},
{
closed = 1;
nodes = (
"514 158 OFFCURVE",
"319 352 OFFCURVE",
"319 739 CURVE SMOOTH",
"319 1112 OFFCURVE",
"504 1305 OFFCURVE",
"872 1305 CURVE SMOOTH",
"912 1305 LINE",
"912 158 LINE",
"903 158 LINE SMOOTH"
);
}
);
width = 1296;
}
);
note = g11;
},
{
glyphname = g12;
lastChange = "2016-11-10 14:28:03 +0000";
layers = (
{
layerId = "3ED71B97-E60E-4E30-889A-2D23B0967E72";
paths = (
{
closed = 1;
nodes = (
"865 0 LINE",
"865 1462 LINE",
"681 1462 LINE",
"681 904 LINE",
"159 1334 LINE",
"60 1201 LINE",
"611 749 LINE",
"60 298 LINE",
"159 165 LINE",
"681 594 LINE",
"681 0 LINE"
);
}
);
width = 1065;
}
);
note = g12;
},
{
glyphname = g13;
lastChange = "2016-11-10 14:28:03 +0000";
layers = (
{
layerId = "3ED71B97-E60E-4E30-889A-2D23B0967E72";
paths = (
{
closed = 1;
nodes = (
"984 0 LINE",
"984 1462 LINE",
"800 1462 LINE",
"60 1010 LINE",
"144 867 LINE",
"800 1267 LINE",
"800 0 LINE"
);
}
);
width = 1184;
}
);
note = g13;
},
{
glyphname = g14;
lastChange = "2016-11-10 14:28:03 +0000";
layers = (
{
layerId = "3ED71B97-E60E-4E30-889A-2D23B0967E72";
paths = (
{
closed = 1;
nodes = (
"1336 0 LINE",
"1336 1462 LINE",
"1152 1462 LINE",
"808 1020 LINE",
"538 1370 LINE",
"407 1370 LINE",
"60 925 LINE",
"187 819 LINE",
"470 1182 LINE",
"725 859 LINE",
"893 859 LINE",
"1152 1192 LINE",
"1152 0 LINE"
);
}
);
width = 1536;
}
);
note = g14;
},
{
glyphname = g15;
lastChange = "2016-11-10 14:28:03 +0000";
layers = (
{
layerId = "3ED71B97-E60E-4E30-889A-2D23B0967E72";
paths = (
{
closed = 1;
nodes = (
"1189 0 LINE",
"1189 1462 LINE",
"1005 1462 LINE",
"576 1016 LINE",
"188 1482 LINE",
"60 1370 LINE",
"503 845 LINE",
"506 848 LINE",
"507 845 LINE",
"636 845 LINE",
"1005 1229 LINE",
"1005 0 LINE"
);
}
);
width = 1389;
}
);
note = g15;
},
{
glyphname = g16;
lastChange = "2016-11-10 14:28:03 +0000";
layers = (
{
layerId = "3ED71B97-E60E-4E30-889A-2D23B0967E72";
paths = (
{
closed = 1;
nodes = (
"1094 195 OFFCURVE",
"1323 406 OFFCURVE",
"1323 750 CURVE SMOOTH",
"1323 1094 OFFCURVE",
"1097 1305 OFFCURVE",
"725 1305 CURVE SMOOTH",
"602 1305 OFFCURVE",
"496 1282 OFFCURVE",
"405 1237 CURVE SMOOTH",
"224 1146 OFFCURVE",
"125 971 OFFCURVE",
"125 751 CURVE SMOOTH",
"125 640 OFFCURVE",
"149 542 OFFCURVE",
"197 458 CURVE SMOOTH",
"293 289 OFFCURVE",
"478 195 OFFCURVE",
"722 195 CURVE SMOOTH"
);
},
{
closed = 1;
nodes = (
"461 357 OFFCURVE",
"319 493 OFFCURVE",
"319 750 CURVE SMOOTH",
"319 1005 OFFCURVE",
"458 1143 OFFCURVE",
"725 1143 CURVE SMOOTH",
"992 1143 OFFCURVE",
"1129 1003 OFFCURVE",
"1129 750 CURVE SMOOTH",
"1129 490 OFFCURVE",
"983 357 OFFCURVE",
"722 357 CURVE SMOOTH"
);
}
);
width = 1448;
}
);
note = g16;
},
{
glyphname = g17;
lastChange = "2016-11-10 14:28:03 +0000";
layers = (
{
layerId = "3ED71B97-E60E-4E30-889A-2D23B0967E72";
paths = (
{
closed = 1;
nodes = (
"1064 0 LINE",
"1064 1462 LINE",
"677 1462 LINE SMOOTH",
"316 1462 OFFCURVE",
"125 1311 OFFCURVE",
"125 1022 CURVE SMOOTH",
"125 727 OFFCURVE",
"337 569 OFFCURVE",
"712 569 CURVE SMOOTH",
"880 569 LINE",
"880 0 LINE"
);
},
{
closed = 1;
nodes = (
"442 727 OFFCURVE",
"319 817 OFFCURVE",
"319 1024 CURVE SMOOTH",
"319 1212 OFFCURVE",
"435 1304 OFFCURVE",
"694 1304 CURVE SMOOTH",
"880 1304 LINE",
"880 727 LINE",
"733 727 LINE SMOOTH"
);
}
);
width = 1264;
}
);
note = g17;
},
{
glyphname = g18;
lastChange = "2016-11-10 14:28:03 +0000";
layers = (
{
layerId = "3ED71B97-E60E-4E30-889A-2D23B0967E72";
paths = (
{
closed = 1;
nodes = (
"1066 94 LINE",
"935 199 OFFCURVE",
"887 263 OFFCURVE",
"887 336 CURVE SMOOTH",
"887 359 OFFCURVE",
"893 402 OFFCURVE",
"906 463 CURVE SMOOTH",
"919 524 OFFCURVE",
"925 572 OFFCURVE",
"925 606 CURVE SMOOTH",
"925 710 OFFCURVE",
"886 778 OFFCURVE",
"807 811 CURVE",
"902 896 OFFCURVE",
"949 999 OFFCURVE",
"949 1120 CURVE SMOOTH",
"949 1353 OFFCURVE",
"780 1483 OFFCURVE",
"487 1483 CURVE SMOOTH",
"311 1483 OFFCURVE",
"150 1426 OFFCURVE",
"30 1331 CURVE",
"117 1194 LINE",
"258 1289 OFFCURVE",
"358 1321 OFFCURVE",
"489 1321 CURVE SMOOTH",
"656 1321 OFFCURVE",
"755 1238 OFFCURVE",
"755 1098 CURVE SMOOTH",
"755 962 OFFCURVE",
"672 856 OFFCURVE",
"511 813 CURVE",
"539 657 LINE",
"578 668 OFFCURVE",
"611 673 OFFCURVE",
"636 673 CURVE SMOOTH",
"699 673 OFFCURVE",
"731 639 OFFCURVE",
"731 570 CURVE SMOOTH",
"731 539 OFFCURVE",
"725 499 OFFCURVE",
"712 448 CURVE SMOOTH",
"699 397 OFFCURVE",
"693 355 OFFCURVE",
"693 321 CURVE SMOOTH",
"693 198 OFFCURVE",
"768 95 OFFCURVE",
"953 -40 CURVE"
);
}
);
width = 1166;
}
);
note = g18;
},
{
glyphname = g19;
lastChange = "2016-11-10 14:28:03 +0000";
layers = (
{
layerId = "3ED71B97-E60E-4E30-889A-2D23B0967E72";
paths = (
{
closed = 1;
nodes = (
"671 0 LINE",
"671 1304 LINE",
"1126 1304 LINE",
"1126 1462 LINE",
"30 1462 LINE",
"30 1304 LINE",
"487 1304 LINE",
"487 0 LINE"
);
}
);
width = 1156;
}
);
note = g19;
},
{
glyphname = g20;
lastChange = "2016-11-10 14:28:03 +0000";
layers = (
{
layerId = "3ED71B97-E60E-4E30-889A-2D23B0967E72";
paths = (
{
closed = 1;
nodes = (
"919 0 LINE",
"919 1462 LINE",
"735 1462 LINE",
"735 883 LINE",
"179 1482 LINE",
"60 1369 LINE",
"735 642 LINE",
"735 0 LINE"
);
}
);
width = 1119;
}
);
note = g20;
},
{
glyphname = g21;
lastChange = "2016-11-10 14:28:03 +0000";
layers = (
{
layerId = "3ED71B97-E60E-4E30-889A-2D23B0967E72";
paths = (
{
closed = 1;
nodes = (
"902 -20 OFFCURVE",
"1093 140 OFFCURVE",
"1093 379 CURVE SMOOTH",
"1093 539 OFFCURVE",
"1001 659 OFFCURVE",
"765 774 CURVE",
"960 874 OFFCURVE",
"1044 986 OFFCURVE",
"1044 1133 CURVE SMOOTH",
"1044 1349 OFFCURVE",
"865 1483 OFFCURVE",
"596 1483 CURVE SMOOTH",
"329 1483 OFFCURVE",
"148 1344 OFFCURVE",
"148 1135 CURVE SMOOTH",
"148 983 OFFCURVE",
"224 868 OFFCURVE",
"405 764 CURVE",
"202 669 OFFCURVE",
"100 539 OFFCURVE",
"100 373 CURVE SMOOTH",
"100 125 OFFCURVE",
"286 -20 OFFCURVE",
"602 -20 CURVE SMOOTH"
);
},
{
closed = 1;
nodes = (
"387 142 OFFCURVE",
"290 228 OFFCURVE",
"290 371 CURVE SMOOTH",
"290 512 OFFCURVE",
"376 605 OFFCURVE",
"565 685 CURVE",
"804 598 OFFCURVE",
"903 508 OFFCURVE",
"903 377 CURVE SMOOTH",
"903 226 OFFCURVE",
"797 142 OFFCURVE",
"598 142 CURVE SMOOTH"
);
},
{
closed = 1;
nodes = (
"529 879 OFFCURVE",
"475 908 OFFCURVE",
"442 933 CURVE SMOOTH",
"374 984 OFFCURVE",
"338 1043 OFFCURVE",
"338 1120 CURVE SMOOTH",
"338 1251 OFFCURVE",
"435 1321 OFFCURVE",
"594 1321 CURVE SMOOTH",
"757 1321 OFFCURVE",
"854 1252 OFFCURVE",
"854 1120 CURVE SMOOTH",
"854 1007 OFFCURVE",
"771 916 OFFCURVE",
"604 847 CURVE"
);
}
);
width = 1193;
}
);
note = g21;
},
{
glyphname = g22;
lastChange = "2016-11-10 14:28:03 +0000";
layers = (
{
layerId = "3ED71B97-E60E-4E30-889A-2D23B0967E72";
paths = (
{
closed = 1;
nodes = (
"719 0 LINE",
"719 666 LINE",
"1174 666 LINE",
"1174 822 LINE",
"719 822 LINE",
"719 1462 LINE",
"535 1462 LINE",
"535 822 LINE",
"80 822 LINE",
"80 666 LINE",
"535 666 LINE",
"535 0 LINE"
);
}
);
width = 1254;
}
);
note = g22;
},
{
glyphname = g23;
lastChange = "2016-11-10 14:28:03 +0000";
layers = (
{
layerId = "3ED71B97-E60E-4E30-889A-2D23B0967E72";
paths = (
{
closed = 1;
nodes = (
"719 0 LINE",
"719 666 LINE",
"1174 666 LINE",
"1174 822 LINE",
"719 822 LINE",
"719 1304 LINE",
"1174 1304 LINE",
"1174 1462 LINE",
"80 1462 LINE",
"80 1304 LINE",
"535 1304 LINE",
"535 822 LINE",
"80 822 LINE",
"80 666 LINE",
"535 666 LINE",
"535 0 LINE"
);
}
);
width = 1254;
}
);
note = g23;
},
{
glyphname = g24;
lastChange = "2016-11-10 14:28:03 +0000";
layers = (
{
layerId = "3ED71B97-E60E-4E30-889A-2D23B0967E72";
paths = (
{
closed = 1;
nodes = (
"1174 0 LINE",
"1174 158 LINE",
"719 158 LINE",
"719 666 LINE",
"1174 666 LINE",
"1174 822 LINE",
"719 822 LINE",
"719 1304 LINE",
"1174 1304 LINE",
"1174 1462 LINE",
"80 1462 LINE",
"80 1304 LINE",
"535 1304 LINE",
"535 822 LINE",
"80 822 LINE",
"80 666 LINE",
"535 666 LINE",
"535 158 LINE",
"80 158 LINE",
"80 0 LINE"
);
}
);
width = 1254;
}
);
note = g24;
},
{
glyphname = g25;
lastChange = "2016-11-10 14:28:03 +0000";
layers = (
{
layerId = "3ED71B97-E60E-4E30-889A-2D23B0967E72";
paths = (
{
closed = 1;
nodes = (
"225 0 LINE",
"449 888 LINE SMOOTH",
"481 1016 OFFCURVE",
"504 1132 OFFCURVE",
"519 1236 CURVE",
"534 1127 OFFCURVE",
"560 1007 OFFCURVE",
"597 877 CURVE SMOOTH",
"851 0 LINE",
"1049 0 LINE",
"1314 884 LINE SMOOTH",
"1349 999 OFFCURVE",
"1375 1117 OFFCURVE",
"1394 1236 CURVE",
"1405 1144 OFFCURVE",
"1428 1027 OFFCURVE",
"1465 886 CURVE SMOOTH",
"1688 0 LINE",
"1883 0 LINE",
"1494 1462 LINE",
"1303 1462 LINE",
"1023 510 LINE SMOOTH",
"981 367 OFFCURVE",
"956 271 OFFCURVE",
"949 221 CURVE",
"941 279 OFFCURVE",
"918 377 OFFCURVE",
"879 516 CURVE SMOOTH",
"608 1462 LINE",
"417 1462 LINE",
"30 0 LINE"
);
}
);
width = 1913;
}
);
note = g25;
},
{
glyphname = g26;
lastChange = "2016-11-10 14:28:03 +0000";
layers = (
{
layerId = "3ED71B97-E60E-4E30-889A-2D23B0967E72";
paths = (
{
closed = 1;
nodes = (
"781 0 LINE",
"781 557 LINE",
"1339 1462 LINE",
"1151 1462 LINE",
"919 1075 LINE SMOOTH",
"871 995 OFFCURVE",
"825 914 OFFCURVE",
"781 832 CURVE",
"781 1462 LINE",
"597 1462 LINE",
"597 836 LINE",
"474 1053 LINE",
"228 1462 LINE",
"40 1462 LINE",
"597 557 LINE",
"597 0 LINE"
);
}
);
width = 1379;
}
);
note = g26;
},
{
glyphname = g27;
lastChange = "2016-11-10 14:28:03 +0000";
layers = (
{
layerId = "3ED71B97-E60E-4E30-889A-2D23B0967E72";
paths = (
{
closed = 1;
nodes = (
"941 0 LINE",
"941 1201 LINE",
"1147 940 LINE",
"1285 940 LINE",
"1638 1382 LINE",
"1511 1482 LINE",
"1217 1117 LINE",
"941 1462 LINE",
"757 1462 LINE",
"481 1117 LINE",
"187 1482 LINE",
"60 1382 LINE",
"413 940 LINE",
"551 940 LINE",
"757 1201 LINE",
"757 0 LINE"
);
}
);
width = 1698;
}
);
note = g27;
},
{
glyphname = g28;
lastChange = "2016-11-10 14:28:03 +0000";
layers = (
{
layerId = "3ED71B97-E60E-4E30-889A-2D23B0967E72";
paths = (
{
closed = 1;
nodes = (
"1167 125 LINE",
"968 180 OFFCURVE",
"821 295 OFFCURVE",
"821 411 CURVE SMOOTH",
"821 507 OFFCURVE",
"869 574 OFFCURVE",
"1014 690 CURVE SMOOTH",
"1141 790 OFFCURVE",
"1207 912 OFFCURVE",
"1207 1065 CURVE SMOOTH",
"1207 1236 OFFCURVE",
"1033 1390 OFFCURVE",
"740 1482 CURVE",
"667 1337 LINE",
"874 1273 OFFCURVE",
"1013 1161 OFFCURVE",
"1013 1057 CURVE SMOOTH",
"1013 1012 OFFCURVE",
"1007 973 OFFCURVE",
"994 940 CURVE SMOOTH",
"969 873 OFFCURVE",
"940 832 OFFCURVE",
"808 731 CURVE",
"720 794 OFFCURVE",
"597 834 OFFCURVE",
"476 834 CURVE SMOOTH",
"327 834 OFFCURVE",
"183 763 OFFCURVE",
"80 651 CURVE",
"176 534 LINE",
"259 626 OFFCURVE",
"359 672 OFFCURVE",
"477 672 CURVE SMOOTH",
"561 672 OFFCURVE",
"632 653 OFFCURVE",
"690 614 CURVE",
"648 556 OFFCURVE",
"627 486 OFFCURVE",
"627 403 CURVE SMOOTH",
"627 220 OFFCURVE",
"803 59 OFFCURVE",
"1094 -20 CURVE"
);
}
);
width = 1337;
}
);
note = g28;
},
{
glyphname = g29;
lastChange = "2016-11-10 14:28:03 +0000";
layers = (
{
layerId = "3ED71B97-E60E-4E30-889A-2D23B0967E72";
paths = (
{
closed = 1;
nodes = (
"793 0 LINE",
"793 1209 LINE",
"1244 748 LINE",
"1361 862 LINE",
"773 1462 LINE",
"628 1462 LINE",
"40 862 LINE",
"157 748 LINE",
"609 1211 LINE",
"609 0 LINE"
);
}
);
width = 1401;
}
);
note = g29;
},
{
glyphname = g30;
lastChange = "2016-11-10 14:28:03 +0000";
layers = (
{
layerId = "3ED71B97-E60E-4E30-889A-2D23B0967E72";
paths = (
{
closed = 1;
nodes = (
"865 253 LINE",
"865 1188 LINE",
"681 1188 LINE",
"100 825 LINE",
"100 616 LINE",
"681 253 LINE"
);
},
{
closed = 1;
nodes = (
"239 720 LINE",
"681 999 LINE",
"681 442 LINE"
);
}
